<svg width="13" height="20" viewBox="0 0 13 20" fill="none" xmlns="http://www.w3.org/2000/svg">
<path d="M6.5 0C4.77609 0 3.12279 0.69939 1.90381 1.94431C0.68482 3.18923 0 4.87771 0 6.6383C0 9.8309 3.2825 14.8802 5.45391 18.2221C5.70984 18.6142 5.9475 18.9793 6.16078 19.3112C6.19754 19.369 6.24779 19.4165 6.30701 19.4494C6.36623 19.4824 6.43256 19.4998 6.5 19.5C6.56673 19.4999 6.6324 19.483 6.69121 19.4508C6.75002 19.4186 6.80015 19.3721 6.83719 19.3154L7.24344 18.693C9.39859 15.4361 13 9.98441 13 6.6383C13 4.87771 12.3152 3.18923 11.0962 1.94431C9.87721 0.69939 8.22391 0 6.5 0V0ZM6.5 10.1649C5.81704 10.1649 5.14941 9.95806 4.58155 9.57055C4.01368 9.18305 3.57109 8.63227 3.30973 7.98787C3.04837 7.34347 2.97999 6.63438 3.11323 5.95029C3.24647 5.2662 3.57534 4.63782 4.05827 4.14462C4.5412 3.65141 5.15649 3.31554 5.82633 3.17946C6.49617 3.04339 7.19048 3.11323 7.82145 3.38015C8.45243 3.64707 8.99173 4.09908 9.37117 4.67903C9.7506 5.25897 9.95313 5.9408 9.95312 6.6383C9.95312 7.57361 9.58931 8.47061 8.94173 9.13198C8.29414 9.79334 7.41583 10.1649 6.5 10.1649V10.1649Z" fill="white"/>
</svg>
