<svg width="20" height="20" viewBox="0 0 20 20" fill="none" xmlns="http://www.w3.org/2000/svg">
<path fill-rule="evenodd" clip-rule="evenodd" d="M19.3557 19.466L19.466 19.3557C19.1069 19.7148 18.5366 19.715 18.185 19.3633L12.1817 13.36C10.9025 14.3842 9.28417 15 7.48 15C3.34917 15 0 11.6425 0 7.5V7.325C0 3.27917 3.27083 0 7.30583 0H7.49417C11.6617 0 15 3.34917 15 7.5C15 9.27167 14.3842 10.8975 13.3592 12.1808L19.3632 18.1849C19.7147 18.5363 19.7115 19.1101 19.3557 19.466ZM7.4825 13.3333C10.7244 13.3333 13.3333 10.7164 13.3333 7.5C13.3333 4.27563 10.7142 1.66667 7.4949 1.66667H7.3301C4.20708 1.66667 1.66667 4.2151 1.66667 7.34688V7.5C1.66667 10.7164 4.27563 13.3333 7.4825 13.3333Z" fill="white"/>
</svg>
